<svg xmlns="http://www.w3.org/2000/svg" xmlns:xlink="http://www.w3.org/1999/xlink" viewBox="0 0 65 31" fill="#fff" fill-rule="evenodd" stroke="#000" stroke-linecap="round" stroke-linejoin="round"><use xlink:href="#A" x=".5" y=".5"/><symbol id="A" overflow="visible"><g stroke="none" fill-rule="nonzero"><path d="M39.433 24.792h3.598v4.805h5.134v-4.805h-2.973l5.046-6.226 5.053 6.226h-2.977v4.805H64v-4.805h-2.192l-8.312-10.244 7.992-9.86H64V0H52.314v4.69h2.655l-4.734 5.842-4.739-5.84h2.668V0h-8.732v5.25l7.545 9.299-7.545 9.308z" fill="#209fda"/><path d="M39.433 5.25V0h-3.012v4.69h2.556zm3.597 19.542h-3.598v-.936l-.759.936h-2.252v4.805h6.608z" fill="#026ba4"/><path d="M17.662 22.591h4.15c-.485 1.205-1.174 2.318-2.035 3.291-.888-.968-1.604-2.081-2.115-3.291m2.115-12.21a11.44 11.44 0 0 0-2.576 4.6c.194.378.351.774.472 1.183h4.107a6.6 6.6 0 0 1 .483-1.165 11.45 11.45 0 0 0-2.485-4.617zm-2.106 5.781a7.05 7.05 0 0 1 .031 3.822h4.04a6.73 6.73 0 0 1 .033-3.822zm0 0h-.74a11.58 11.58 0 0 0-.019 3.822h.79a7.05 7.05 0 0 0-.031-3.822z" fill="#78212e"/><path d="M38.977 4.69h-2.556V.001h-4.827V4.69h3.118v4.042a11.03 11.03 0 0 0-6.483-2.069c-3.215-.004-6.284 1.346-8.454 3.719a11.45 11.45 0 0 1 2.481 4.617 6.69 6.69 0 0 1 5.917-3.562c3.697 0 6.538 2.997 6.538 6.692v.036c-.019 3.679-2.852 6.657-6.538 6.657a6.69 6.69 0 0 1-5.917-3.562 6.64 6.64 0 0 1-.516-1.275h-4.827a11.43 11.43 0 0 0 .749 2.603h4.147c-.485 1.205-1.174 2.318-2.035 3.291 2.17 2.373 5.238 3.723 8.454 3.719a11.02 11.02 0 0 0 8.192-3.588v-1.215h2.249l.759-.937V5.251zm-4.264 22.84v2.076h1.708V26.01a11.12 11.12 0 0 1-1.709 1.52zM17.201 14.982c-.111.389-.201.784-.27 1.183h.74c-.119-.408-.277-.804-.472-1.183z" fill="#8a8c8f"/><path d="M22.511 16.164a11.8 11.8 0 0 0-.252-1.165 6.6 6.6 0 0 0-.483 1.165 6.73 6.73 0 0 0-.033 3.822h.785a12.18 12.18 0 0 0-.018-3.822zm-11.044-9.5a11.47 11.47 0 0 0-11.299 9.5h4.845c.863-2.81 3.459-4.728 6.399-4.728 2.445-.01 4.686 1.362 5.788 3.544a11.44 11.44 0 0 1 2.576-4.6 11.01 11.01 0 0 0-8.309-3.719zm4.849 15.929c-1.229 1.427-3.022 2.244-4.905 2.234a6.69 6.69 0 0 1-6.432-4.838h11.932a11.58 11.58 0 0 1 .019-3.822H.168a11.58 11.58 0 0 0-.019 3.822 11.47 11.47 0 0 0 11.318 9.61 11.01 11.01 0 0 0 8.31-3.722c-.888-.968-1.604-2.081-2.115-3.291h-1.345z" fill="#b72768"/></g></symbol></svg>